<svg id="logo" xmlns="http://www.w3.org/2000/svg" viewBox="0 0 2905.61 2028.15"><defs><style>.cls-1{fill:#fff;}</style></defs><path class="cls-1" d="M3450.65,1116.89l0-.06a126.65,126.65,0,0,0-7.14-11c-12.1-14.33-29.37-21.57-47-26.42-30.26-8.32-61.17-9-92.24-7-83.88,5.44-165.19,24.8-246.15,45.83-143.36,37.23-282.66,86.66-420.49,140.48-28.54,11.14-57,22.42-85.56,33.61-2.74,1.08-5.53,2-8.68,3.15-2.28-2.74-4.46-5.2-6.48-7.79-89.53-114.91-206.81-184.2-349.07-212.19-77.06-15.16-154.74-17.1-232.86-10.66-55,4.53-109.09,13.36-161.94,29.15-178.3,53.27-302.48,167.11-375.83,337.37-28.39,65.88-46.33,134.72-56.57,205.66a884.25,884.25,0,0,0-9.22,131.55c0,1.32-.16,2.65-.32,5-4,1.93-8.42,4.13-12.89,6.12-124.15,55.35-247.3,112.81-368,175.5-86.67,45-172,92.35-253.44,146.48-36.1,24-71.51,49-103.57,78.31-15.47,14.12-29.81,29.54-43.89,45.06a117.91,117.91,0,0,0-8.33,10.22h0A73.12,73.12,0,0,0,549,2260.08h-.13a60,60,0,0,0,2.36,35.87l0,.09c6.88,16.92,19.32,28,36.66,33.7,20.08,6.65,40.84,9.43,61.89,10.3,42.12,1.74,83.87-2.31,125.39-8.92,108.17-17.23,213.21-47,317.33-80.27,67.56-21.57,134.81-44.1,202.21-66.18,3-1,6.15-1.66,11.21-3-24.44,46.72-38.09,94.76-44,145.35-9.36.78-17.91,1.37-26.43,2.23-64.28,6.45-114.14,37.71-152.15,89-26.95,36.39-43.38,77.69-56.43,120.7-8.91,29.35-9.22,59.05-6.88,89.11a248.3,248.3,0,0,0,13,63.46q27.95,79.29,105,112.91l9.82,4.27c3,13.94,5.2,27.81,9.14,41.16,25.62,87,83.19,139.59,171.73,158.47,8.76,1.87,17.51,3.81,26.27,5.71h80q17.58-3.43,35.15-6.87c59.13-11.48,115.58-31.49,171.29-53.85,6.79-2.73,13.7-5.28,20.25-8.52,5.87-2.89,11-2.72,17-.06a442,442,0,0,0,94.09,29.85c131.69,25.53,254.23,2.65,367.31-69.89,2.8-1.79,5.56-3.66,8.37-5.45a15.24,15.24,0,0,1,2.46-.89c2.36,1.7,5,3.6,7.67,5.53,35.49,26,74.42,44.25,118.05,51.21,31.14,5,62.44,3.5,93.68.09,62.87-6.88,122.43-25.41,179.89-51.21,6.27-2.82,11.39-2.78,17.89-.46,83.08,29.69,163.08,21.76,239.81-21a270.07,270.07,0,0,0,74.47-61.33,18.9,18.9,0,0,0,4.68-9.24c-4.69,2.18-9.4,4.3-14.06,6.55-37.21,18-75,34.47-114.84,46.07-62.1,18.09-125,21.33-189,12.7-34.92-4.71-68.1-15.55-101.46-26-2.54-.8-5.09-1.58-7.66-2.26-.56-.15-1.25.15-3.68.52,17,11.84,34.1,21,51.74,32.08-8.81,4.4-16.41,7.8-24.7,7.66-39.73-.7-79.22-3.53-117.51-15.35-16.64-5.14-32.49-12-46.7-22.25-33.53-24.18-45-60.94-31.89-101.95,1-3.13,2.2-6.2,3.67-10.34-4.17-1.37-7.82-2.64-11.51-3.78-45.64-14-89.94-31.3-131.73-54.63-33.94-18.93-65.33-41.3-92.43-69.35-40.09-41.48-66-90.1-73.27-147.8a250.58,250.58,0,0,1,.93-69.78c.25-1.6.81-3.15,1.39-5.31l21.8-2.09c55.09-5.23,109.65-14.11,164.13-23.6,23.94-4.17,47.95-8,71.77-12.86,66.09-13.43,121.76-45.5,167.62-94.89,18.37-19.77,36.63-39.68,55.72-58.75a301.51,301.51,0,0,1,36.38-31.17,178,178,0,0,1,34-18.78c47.78-20.51,78-56.67,94.74-104.94,4.59-13.25,4.27-26.4-2.61-39.65-8.62-16.6-12.92-51.78-10-69.12,4.89-.83,10.06-1.84,15.27-2.58,38.7-5.5,77.5-8.31,116.56-4.41,47.6,4.75,92.12,18,130.52,47.76,35.85,27.81,59.58,64.41,75,106.49,25.59,69.75,28.07,140,1.72,210.22-14.33,38.19-38.12,70.09-68,97.52-39.87,36.56-86.34,62.3-136.45,81.61-21.72,8.36-44.17,14.81-66.3,22.11-2.79.92-5.63,1.73-8.46,3.73a40.58,40.58,0,0,0,6,.24c59.91-6.27,117-22.19,170.46-50.32,7.66-4,15.14-8.44,22.46-13.06,3.83-2.43,7-2.61,11.07-.47,55.85,29.68,92.94,73.7,104.71,137,6.2,33.37,2.88,66.39-4.4,99.2a19.72,19.72,0,0,0-.5,7.51c19.83-48.2,27.9-97.67,14.6-149.09-13.23-51.12-43.75-90.58-85.39-122.87,3-2.86,5.33-5.12,7.72-7.32,55.63-51.29,85.07-115.08,90-190.27,4.43-67-9.53-130-43.6-188-40-68.15-99.92-107.45-177.49-120.15-56.89-9.31-112.88-2.89-168.35,10.78-4.09,1-8.2,2-14.19,3.41,21.42-55,37.53-109.77,46.2-166.53,8.72-57.07,9.19-114.14-.54-172.21,3.42-1.39,6.67-2.79,10-4.06,194.32-74.82,382.29-163.06,562.83-267,46.51-26.76,92.56-54.3,136.11-85.73,14.57-10.52,28.73-21.7,42.4-33.36q3-2.5,5.82-5.1l0,0,.09-.07C3416.42,1175.81,3463.3,1137.31,3450.65,1116.89Zm-2052.92,882.3c-57,16.33-114.16,31.68-172.68,41.5-22.35,3.75-44.79,6.64-67.55,5.19h0a4.13,4.13,0,0,1-3.06-6.47c2.25-3.25,4.22-6.08,6.37-8.77,13.84-17.25,30.25-31.87,47.4-45.68,42.93-34.57,89.65-63.44,137.28-90.91,6-3.47,12.15-6.76,19.19-10.68a522.61,522.61,0,0,0,40.93,112.75C1402.43,1997.36,1400.14,1998.5,1397.73,1999.19Zm446.53,377.45c-5.79.72-11.56,1.58-17.36,2.12-58.68,5.52-116.39,1.77-172-19.34-51.28-19.47-91.45-52.37-118.62-100.47a25,25,0,0,1-3.39-9.67c2.31,1.55,4.65,3.06,6.93,4.66,18.5,13,36.62,26.6,55.59,38.88,22.48,14.56,47.24,24,73.1,31.24,41.62,11.63,82.87,24.6,124.34,36.8,14,4.13,28.26,7.6,42.38,11.41,3,.81,6,1.74,9.06,2.62C1844.27,2375.47,1844.27,2376.06,1844.26,2376.64Zm668.58-1082.1,10.9,8.65-10.9,4.91Zm-16.76-11.25c6.26.56,9.56,4,9.82,10.23.23,5.6,0,11.21,0,18.22l-20.58,1.61c-2.3-10.33-.82-19.7-1.14-30.12C2489,1283.23,2492.55,1283,2496.08,1283.29Zm-34.28,32.88c.32-13.55,2-27.26.52-40.59-.84-7.33,1.66-12.38,3.83-20l25.6,21.41-.69,2.44-13.15-2c0,11.12,0,22,0,32.88,0,13.45-.67,14.18-16.11,16.7C2461.79,1323.31,2461.72,1319.74,2461.8,1316.17Zm-105.53-143.5-3.92,9.52C2350.92,1174.23,2350.92,1174.23,2356.27,1172.67Zm-224.45-72.75c-3.3,8.25-6.24,9.75-16.83,9.5-11-.26-14.66-2.51-18-12.73Zm-193.93,201.46c2.67,6.91,3,31.7.81,42.6h-14.57C1928,1329,1932.74,1315.46,1937.89,1301.38ZM1901,1442.27c2.11,5.83,2.91,11.43-3.33,16.69C1896.14,1452.11,1898,1447.1,1901,1442.27Zm-7.07,28.61c.3-1.87,2.27-4.41,4-5,9.36-3,12-9.69,11.53-18.6a13.82,13.82,0,0,1,.82-3.35c9.57,1.67,17.21,6.84,24.66,12.34,1.87,1.39,3.36,3.52,5.41,4.35,1.83.75,4.2.18,6.32.19-.14-2.16.52-5-.61-6.34a25.59,25.59,0,0,0-8.41-6.8c-9-4.24-18.25-7.91-28.33-12.19-2.83-10.06-3.28-21.11-2-32.86,12.94-1.54,25.65-1.13,37.78-7.53-4.39-4.93-8.37-6.19-13-3.37-6.53,4-13.81,4-22.6,5.64a414.09,414.09,0,0,1,14.24-51.93l13.06,7.39c8.22-2.61,9.51-4,9.58-12.73.14-18.34.32-36.68-.07-55-.17-8,2.56-15.06,5.8-22,1.12-2.38,4-3.91,5.48-5.25,0-3.43-.87-6.63.14-9,8.2-19.65,16.75-39.15,25.48-59.34,5.32,3.87,3.62,12.19,11.48,13,.53-1.18,1.8-2.61,1.68-3.93-1.29-14.19,5-25.84,12.34-37.06a24.62,24.62,0,0,1,6.33-6.3c8.37-5.9,17.09-3.38,21.39,5.93,11.53,24.94.69,55.5-24.06,67.38-4.93,2.37-10.17,4.12-15,7.67a44,44,0,0,0,5,0,30.63,30.63,0,0,0,4.88-1.08c39.84-11,45.44-41.27,37.28-70.68-5.19-18.73-22.89-22.37-36-7.9-4.64,5.09-7.87,11.49-11.62,17.36-1.52,2.39-2.75,5-5.77,6.89.63-3.46.47-7.32,2-10.32,12.52-24.6,25.36-49,38.79-74.85,5.61,3.5,10,6.14,14.34,9,1.93,1.29,3.35,3.48,5.39,4.4,1.84.83,4.2.48,6.34.66-.16-2.42.42-5.26-.67-7.15-1.4-2.44-4.13-4.13-7.82-7.57,14.6-.27,27.59.68,40.93,1.13,2.16,14.42,12,18.87,24.36,19.39,10.65.44,21-.54,25.38-14,10.23,1.82,21.12-.08,30,7.65,1.24,1.07,4.46,1.74,5.4,1,4.47-3.74,8.89-1.51,13.31-.6,51.51,10.61,100.82,27.51,147.5,51.86,3.21,1.67,6.34,3.51,9.72,5.38-.63,11.14-4,22.28,2.4,32.41,1,1.65,3.3,2.54,6.3,4.74.71-10.61.59-19.93,6.6-29l36.33,23.73c-6.52,21.62-22.85,30.22-42.15,36,12.63,5.27,33.49-7.34,49.72-29.58a65.54,65.54,0,0,1,6.37,4.21c14.78,12.44,29.43,25,44.29,37.4,3.61,3,4.75,6.24,3.1,10.49-4.32,11.15-8.58,22.32-13.1,33.38-1.24,3-3.32,5.7-4.42,9.09,5.68-2.43,7.58-8.74,13-13.73v45.83l-35.4,14.5c-2.28-8-2.92-70.57-1.08-85.71l11.46-2c-.76-5.45-4.82-6.48-8.34-8.71-5.35,5.88-12.21,6-19.35,5.79-11.66-.28-23.32-.11-35,0a29.21,29.21,0,0,0-9.44,1.39c5.1,4.2,11,2.28,16.57,2.59,6,.34,12,.08,18,.08h18.31V1344h-16l9.6,6.44c-5.71,5-69.67,32.43-106.61,45.69-4.25-6-9.18-6.88-16.52-3.34-6.58,3.18-14.55,3.49-22.24,5.14a23.29,23.29,0,0,1,.11-15.92c1.36-4.09,2-7.71-2.16-10.67-4.46-3.19-8.63-3.12-14.26.69,2.54,1.8,5.86,3.06,7.28,5.46s1,5.79,1,8.76c.1,9.62,0,19.24,0,29.44-4.72,2-9.57,4.15-14.46,6.19-19.37,8.08-38.81,16-58.07,24.3a15.09,15.09,0,0,1-14.08-.38c-7.7-3.82-15.94-6.53-25.39-10.29q-1.23-15.42-2.65-33.3c14.48-.54,27-.83,39.36-7-4.44-5-8.37-6.21-13.08-3.48-7.5,4.36-15.82,4.58-24.15,5.44-3.05-5.07-1.88-10.16-.65-14.79s2.31-8.52-2.55-11.3c-4.49-2.56-9.12-4-14.14.62,2.78,2,6.22,3.28,7.42,5.68,1.38,2.75.83,6.49,1,9.8q1.17,20.46,2.26,40.94c.1,1.94,0,3.89,0,6.46-3.18,0-6.09-.31-8.9.06-7.19,1-14.52,1.62-21.45,3.59a12.33,12.33,0,0,0-9.33,11.81c-.2,6.34,3.47,10.67,8.87,13.39,7.68,3.87,15.92,4.38,24.71,4-2.46,1.23-4.85,2.61-7.38,3.67-24,10-48,20-71.89,30.1-4.5,1.9-8.29,2.68-13.08,0-6.68-3.76-13.83-2.51-19.57,2.42-4.24,3.63-7.52,8.37-11.38,12.47-2.29,2.41-4.88,4.54-9,8.33.22-10.23,3.61-16.54,7-23,4.24-8.21-.56-14.4-10.31-13.77,3.48,8.87,3.48,8.87.5,19.73a16.57,16.57,0,0,0-1.09,3.83c-.34,12-6.88,18.1-18,21.4-9.21,2.73-17.88,7.28-26.82,10.92-2.35,1-4.86,1.54-7.88,2.48-.33-6.77-.1-12.77-1-18.6s-2.18-11.93-4.8-17.15c-6-12-19-14.64-29.36-6.16-4.77,3.88-8.59,8.92-14.18,14.85C1889.38,1501.7,1891.46,1486.26,1893.92,1470.88Zm389.86-70.7c-4.9,4.42-13.93,8.47-26,11.41-.24-3.27-.43-5.85-.66-9Zm-122.56,52.67-24.31,10.36c1.37-7.27,2.44-13,3.79-20.2Zm-28.67-1.49c-.43,4.4-3,7.2-7.3,8.46a32.81,32.81,0,0,1-21.52-1c-3.93-1.52-7.37-4.67-6.33-9a13.28,13.28,0,0,1,6.25-8c9.09-4.31,18.62-3.3,29-.47C2132.61,1444.88,2132.86,1448.15,2132.55,1451.36Zm-100.35,55.46-23.94,10C2012.39,1505.26,2019.62,1501.84,2032.2,1506.82Zm-139.4,12.93c3-4.7,6.37-9.53,10.65-12.94,7.89-6.25,17.4-3.53,21.19,5.86,4.47,11.07,4.63,22.73,2.5,34.35a8,8,0,0,1-4,5c-12.7,5.58-25.57,10.81-40.41,17C1884.49,1550.7,1883.62,1534.17,1892.8,1519.75Zm33,379.72q-5.17-17.06-10.36-34.11l2.63-.83c11.63,8.68,9.06,22,10.5,34.08Zm229.75,380.69-30.42-32.71a20.7,20.7,0,0,1,1.5-3.47c4.49-6.13,9.81-11.32,18.13-9.69,8.59,1.69,10.8,8.9,12.25,16.3C2159.15,2261.35,2158.79,2271.13,2155.59,2280.16Zm86.92-21.57-1.63-1.83c3.14-8,7.17-15.55,14.89-20.45s14.46-2.64,19.62,7.37Zm129.68-76.21a22.52,22.52,0,0,1-26.75,7.08c-3.94-1.61-6.91-4.08-7.11-8.65s2.38-7.71,6.47-9a123.25,123.25,0,0,1,12.4-2.73c4.79.43,7.46.5,10.07.92C2373.78,2171.09,2376.18,2177.24,2372.19,2182.38Zm133.53-145.19c-.14,3.73-2.36,6.14-6.47,6.12-4.59,0-9.17,0-14.15,0-.4-3.19-.88-5.42-.91-7.65-.11-6.92,0-13.84,0-21.59h21.65C2505.8,2022.08,2506,2029.64,2505.72,2037.19ZM2609,1810.44c-.31,4.86-2.86,8.74-7.67,9a102.56,102.56,0,0,1-20.57-.9c-4.17-.59-6.93-4.13-7.1-8.55s2.74-7.39,6.71-9c9-3.54,18.08-3.24,28.66.14C2609.06,1804.58,2609.21,1807.52,2609,1810.44Zm7.38-26.71-2.74.11c-.39-7-.79-14-1.21-21.6h8.17C2619.12,1769.9,2617.77,1776.81,2616.41,1783.73ZM2596.22,1637c-2,7.84-2.16,40.34-.16,48.86,4.39-1.32,4.39-1.32,6-8.58h19.71c.74,2.69,1.51,5.43,2.22,8,5.12,1,5.31-2.27,5.33-5.36.06-10.33,0-20.66.11-31,1.86,42.37-.49,66.07-6.46,100.52-1.15,6.69-1.34,6.66-10.25,6.23.31-4.52.08-9.16,1.09-13.52,1-4.09,2.24-7.69-1.74-10.83-4.15-3.29-8.55-3.38-14.43-.06,2.62,2.45,6.19,4.44,7.55,7.44s.75,7.18.91,10.83c.62,14.61,1.21,29.22,1.84,44.61-3.35,0-6.61-.42-9.72.09-7.47,1.23-15.43,1.63-22.16,4.68-10.55,4.78-10.88,17.14-.74,22.89,5.23,3,11.89,3.61,18,4.74,3.46.63,7.14.11,11.95.11-2.58,8.51-5,16.38-7.47,24.6-5-.21-7.69-7.68-14.08-3.39,5.57,6.09,2.73,12.63,1.33,19.37-2,9.42-3.12,19-4.79,28.48a38.56,38.56,0,0,1-2.54,9.55c-10.52,22.66-21.07,45.3-32,67.78-4.24,8.75-11.71,12.9-21.61,12.76-13-.17-26,0-39,0h-9.42c4.89,5.92,10.92,3.69,16.43,4,6,.4,12,.09,18,.09h18c4.17,16.38-8.09,24.85-13.45,36.16l-2.53-.56c.43-4.89.86-9.78,1.42-16.22-1.63-.25-4.27-1.37-6.58-.89a57.74,57.74,0,0,1-27.41-.61c-2.28,7.07-2.51,39.72-.32,48.95,6.71.58,3.49-5.94,6.42-8.84h13.14c-1.79,3.09-2.89,5.41-4.36,7.45a631.16,631.16,0,0,1-99,108.22c-1.77,1.52-3.45,3.27-5.48,4.32a7.31,7.31,0,0,1-10.7-5.12c-1-6.58-1.51-13.24-2-19.89-.25-3.24,0-6.51,0-10.45,13.32-.22,26.1-.65,38.75-6.76-4.79-5.62-8.8-5.72-13.94-3.05-7.47,3.88-15.61,5-25.25,4.23.46-5,.42-9.62,1.43-14,.93-4,2.57-7.86-1.65-10.8-4.66-3.23-9.52-4.34-15.81.35,9.54,2.32,9.61,8.86,9.69,16,.12,11.65,1,23.3,1.62,35,.18,3.61.37,7.22.59,11.66-3.53,0-6.42-.34-9.2.06-7.49,1.09-15.51,1.17-22.28,4.08-11.58,5-11.55,17.61-.64,24.13,2.79,1.67,5.94,2.73,8.95,4.09-6.95,8.5-48.28,34.23-67.1,41.84a2.73,2.73,0,0,1-.89-.36c-13.76-12.93-25.07-12.16-36.57,3.08-4.54,6-8,12.84-13.59,19.24.15-2.61-.21-5.39.56-7.8,2.3-7.24,4.77-14.46,7.7-21.47,3.58-8.56-.57-14.25-10.81-13.88,1.1,3,2.81,5.82,3.07,8.8s-1,5.85-1.62,8.77c-2.16,9.73-4.36,19.45-6.82,30.45-18.08,7.39-37.61,13.51-58.69,19,.3-4,.82-6.92.65-9.76-.52-9.26,0-18.84-2.24-27.67-5.07-19.72-21.69-23.74-36.17-9.55-1.41,1.38-2.73,2.85-4.66,4.88-4-3-7.05-5.09-4.1-11.15,4.23-8.71-.09-14-10.57-13.81l3.28,9.28-2,1.11a988.18,988.18,0,0,1-70.83-96c6-3.86,13.67-1.61,17.79-7.83-7.61-8.59-14.13.71-21.68.75a54.19,54.19,0,0,1-4.45-5.85c-14.17-24.51-28.43-49-42.22-73.71-2.31-4.14-3-9.39-3.59-14.23-1.21-10.41,0-20.93-.21-31.4-.15-7.09,4.42-14.29,7.1-22.07l-6.73-.87L1973,2014.2c-2.58-4.21-4.13-6.12-5-8.3-11.09-26.77-22.07-53.58-33.13-80.36A20.11,20.11,0,0,1,1934,1912a65.61,65.61,0,0,0-.72-35.56c-2.33-8.06-6.58-14.7-15.36-16.84-3.45-.83-4.92-2.81-5.71-6-2.13-8.74-4.52-17.41-6.61-26.16a12.4,12.4,0,0,1,.1-5.81c1.54-5.65,3.41-11.22,5.53-18.06,8.63,2.33,16.78,7,24.36,13,2.08,1.64,4,3.6,6.33,4.78a4.81,4.81,0,0,0,4.45-.62c.9-.87,1.35-3.45.7-4.41-1.81-2.66-3.88-5.63-6.6-7.11-6.69-3.64-13.76-6.62-20.78-9.65-3.32-1.44-6.85-2.4-11.2-3.88l-2.6-33.18c13.53-1.43,26.54-1.11,39-7.42-4.18-5.63-8.2-6-13.36-3.29-7.49,4-15.58,5.14-25.15,4.18.3-4.94-.15-9.65,1-13.91,1.31-4.65,2.12-8.62-2.68-11.26-4.41-2.41-9.13-4.53-13.9.83,2.62,1.88,6.09,3.14,7.29,5.53,1.38,2.74.8,6.49,1,9.8q1.15,20.47,2.23,40.94a9.92,9.92,0,0,1-1.46,6.26c-.88-1.77-2.28-3.46-2.56-5.33-4.15-28.33-8.58-56.63-12-85.06-2-16.18-2.28-32.57-3.26-48.86-.22-3.53-1.3-7.73,5.42-8.4,2.3,12.94-.2,26.19,1.43,39.36,7.92,1.29,4.51-5.81,7.27-8.8h19.27c.9,3.18,1.68,5.9,2.42,8.5,5.25.18,4.81-3.3,4.85-6.19.1-8.34-.09-16.67.11-25,.09-3.93,1.14-7.85,1.11-11.77,0-2.6-1.2-5.2-2-8.42l17.7-5.86c1,25.56.35,50,.49,75.36l-15.58.78,12.46,8.66c7.52-1.73,9.66-6.87,9.59-14.08-.2-20.34-.07-40.68-.07-61v-12.06l34.63-11.9c-2.21,17.56-9.93,31.42-18.1,45.12l1.93,1.17,11.53-14.92c.52,3.95,1.1,6.37,1.11,8.79.09,16.67,0,33.34.09,50,0,3.12.53,6.24.8,9.2,5.21.2,5.36-2.63,5.42-5.34.1-5.33,0-10.67.08-16,.32-19,.72-37.92,1-56.88,0-2.79-1.24-5.79-.58-8.35,4-15.3,4.07-15.29,19.21-20.4q70.52-23.79,141.05-47.54c2.73-.92,5.52-1.63,9.46-2.78a34.6,34.6,0,0,1-16.11,19.74c-7,4.17-14.7,7.29-22.16,10.91.42.46.84,1.24,1.14,1.2,20.25-2.79,36.82-11,45.81-30.72a16.43,16.43,0,0,1,5.65-6.22c2.12-1.45,4.93-1.9,7.46-2.75,15.76-5.28,31.53-10.54,47.87-16,2.31,8,.81,17.27,10.09,22.61a43.56,43.56,0,0,0,1.94-5.88c.22-1.26-.34-2.64-.3-4,.41-13,4.3-18.31,16.61-22.46,7.84-2.65,15.71-5.21,24.61-8.16,3.64,16.34,5,31.61-3,46.2s-22.47,20.78-37,26.71c18.16-1.82,34.28-7.64,44.08-24.14,9.5-16,7.12-33.3,3-51.23l64.72-21.82c4.68,4,3.39,7.93,2.46,11.84-1.84,7.77-4.28,15.48-5.24,23.37-.8,6.49-.25,13.24.55,19.77.46,3.82,2.11,7.82,7.67,9,.58-1.66,1.71-3.35,1.66-5-.39-14.42,5.71-26.42,13.82-37.66a20.13,20.13,0,0,1,4.31-4.13c8.56-6.47,18.82-4.49,22,5.56,7.71,24.41,5.51,53.07-23.11,66.82-5.28,2.54-10.83,4.52-16.57,6.89,1.05.84,1.51,1.54,1.95,1.52,22.38-.69,43.48-17.51,47.84-38.62a66.36,66.36,0,0,0-1.37-32.66c-2.39-8-6.59-14.8-15.35-16.92-9.24-2.24-16.56,2-21.86,8.89-5.62,7.35-10.18,15.52-14.93,22.92-1.79-6.41-.18-17.34,5.32-26.82,3.33-5.73,5.18-10.81-1.26-17.35l94.59-32c8.67,10.75,19.94,13,32.53,10.92,11.33-1.9,14.72-5.73,15.51-17.12.12-1.62.3-3.24.52-5.71,10.34,2.6,18.69,7.77,26.51,14,3,2.38,5.66,6.64,10.13,3.11,2.57-2,.51-7.37-4.79-10.43-7.69-4.46-15.84-8.13-23.81-12.14,6-4.22,67.36-25.76,89-31.15,1.7,8.65,3.4,17.25,5.25,26.63-5.17.57-9.45.67-13.56,1.59-4.48,1-9.21,2.06-13.11,4.35-9.13,5.36-9.33,15.9-.71,22.18,6.51,4.74,14.12,5.68,21.91,5.26,3.28-.17,6.54-.83,10.94-1.42,2.61,11.5,4.89,22.68,5.87,34.49-12.69,7.29-18.59,19.68-25.44,31.55-1.57-10.58,1.66-19.9,6.48-28.92,4.9-9.19,1.46-14.84-10.5-15.49,6.18,8.06,2,15.69.56,23.52a219.62,219.62,0,0,0-3.67,26.61c-.25,4.08,1.41,8.48,3,12.4.8,2,3.45,3.16,7,6.13-.29-17.45,4.42-31,13.28-43.06,2.22-3,5.59-5.19,9.44-8.66,1,3.3,1.83,5,2.11,6.83,2.66,17.11,5.06,34.27,7.93,51.36.79,4.72-.69,8-4.34,10.19-6.23,3.78-12.66,7.24-19.12,10.61-2.53,1.33-5.38,2.08-7.75,4,11.54.63,21.35-4.46,31.06-9.61,3.57,6.43,5.81,22.83,5,37.34l-34.9.67c5.14,5.84,11.5,3.27,17.29,3.7,5.94.45,11.93.1,19,.1.4,5.84.76,11,1.1,16C2616.34,1639.72,2606.88,1640.11,2596.22,1637Zm26.07,6.58v28.63h-20.51v-28.63Zm-706.33.09v28.63h-20.55v-28.63Zm-2.19-6.13,2.91-1.53c.15.5.29,1,.43,1.49a18,18,0,0,1-2.46,1.2C1914.5,1638.7,1914.07,1637.9,1913.77,1637.49Zm543.56-184.14,33.26-11.17c3.15,12.45.27,17.47-10.78,18.58C2472.09,1461.54,2464.16,1461.74,2457.33,1453.35Zm145.56-12.79c1,5.16,2.11,10.62,3.36,16.91-9.33,5.3-18.62,4.82-27.53.4-7.16-3.55-6.74-11.65.24-15.84C2584.12,1438.93,2593.18,1438.29,2602.89,1440.56Zm9.9-38.87a13.48,13.48,0,0,1,3.06-1.8c40.34-11.78,81.22-18.24,123.27-12a55.79,55.79,0,0,1,16,5.11c5.5,2.7,6.61,6,4.22,11.6-2.17,5.15-4.79,10.45-8.45,14.59a316.75,316.75,0,0,1-26.39,27.2c-24,21.31-50.47,39.23-77.54,56.32a34,34,0,0,1-3.95,1.8C2632.78,1469.72,2622.86,1436,2612.79,1401.69Zm799.7-263.44-.11.12c-7.12,8.33-14.31,16.9-22.78,23.74-19.42,15.69-39,31.24-59.62,45.35-59.7,41-122.7,76.46-186.28,110.92-157.35,85.28-318.55,162.77-481.1,237.52-2.37,1.09-4.85,1.95-8.58,3.43-2.92-14.22-5.57-27.16-8.28-40.35,3.64-2.34,6.63-4.39,9.73-6.25,36.38-21.85,70.16-47.3,102.76-74.36a225.29,225.29,0,0,0,18.87-17.83,56.59,56.59,0,0,0,8.62-12.17c3.85-7.14,3-13.72-2.66-20.13-13.11-14.82-30.18-21.5-48.94-24.73-25.57-4.41-51.12-2.52-76.65.88-40.24,5.38-78.18,18.94-116.26,32.18-218,75.8-434.72,155.16-649.55,239.59-2.75,1.08-5.56,2-8.33,3-2.94-8.27-2.86-45.81.15-61.12,11.87-4.93,24.12-10.06,36.4-15.12,222.63-91.79,446.12-181.4,672.3-264.12,123.87-45.31,248.45-88.53,374.89-126.18,75.35-22.44,151.2-43,228.48-57.77,44.2-8.46,88.62-15.31,133.8-15.45,20.05-.06,40,1,59.4,6.54a79.65,79.65,0,0,1,19.35,7.9C3416.67,1119,3418.92,1130.61,3412.49,1138.25Z" transform="translate(-547.19 -985.93)"/><path class="cls-1" d="M2437.76,2576.36c-24.87-17.56-45.48-39-59.58-66.26a42.48,42.48,0,0,0-3-4.42c-1,.32-1.51.34-1.59.53a13.2,13.2,0,0,0-.9,2.84,131.43,131.43,0,0,0,3.05,55.49c10,36,33.77,59.69,67.24,74.49,23.44,10.36,48.25,15,73.62,17.09,45.51,3.78,90.48-1.16,135.32-8.36a32.75,32.75,0,0,0,5.27-1.79,9.5,9.5,0,0,0-5.59-1.92,551.19,551.19,0,0,1-103.17-18.1C2509,2615.11,2471.41,2600.13,2437.76,2576.36Z" transform="translate(-547.19 -985.93)"/><path class="cls-1" d="M2011,1824.85c6-1.78,9.37-6.07,10-12.38.28-2.8.55-5.61.9-9.23a72.18,72.18,0,0,1,25.26,13.23c1.83,1.45,3.39,3.41,5.43,4.31,1.53.68,4.34.76,5.29-.19s1.3-4.17.45-5.26c-2.19-2.8-4.81-5.73-7.92-7.24-9.52-4.61-19.34-8.58-30.31-13.34-.85-9.92-1.77-20.76-2.76-32.26,31-2.85,33.53-3.47,38.17-9.5-4-3.39-7.85-3.7-12.69-1.16-7.71,4.06-16,5.37-25.73,3.75.86-5.71,1-10.74,2.48-15.36,1.55-4.87-.13-7.69-3.93-10-4.93-2.94-7.87-2.49-12.79,1.72,7.81,4.09,7.68,4.09,8,13.39.33,9.64,1.06,19.26,1.38,28.9.22,6.53,0,13.08,0,19.81-3.5,0-6.79-.32-10,.07-5.9.7-12,1.18-17.58,2.91-7.66,2.34-11.87,7.69-11.49,13.39.47,7.19,5.07,11.35,11.37,13.76A40.17,40.17,0,0,0,2011,1824.85Zm-32.14-14.66c-.23-5,3.29-8.51,10.25-10.37,7.94-2.11,15.77-1.53,24,1,2.78,14.72-.78,19.48-14.35,19.75a44.38,44.38,0,0,1-8.91-.75C1982.81,1818.52,1979.07,1815.1,1978.84,1810.19Z" transform="translate(-547.19 -985.93)"/><path class="cls-1" d="M2091.75,1809.91c-.13,7.24,4.54,11.48,10.78,14.14,7.64,3.26,15.63,3.14,23.56,1.73,8.74-1.54,12.43-6,13.3-14.87.22-2.21.45-4.42.75-7.4,10.3,2.27,18.27,7.41,25.86,13.31,1.83,1.43,3.43,3.39,5.49,4.21a6.55,6.55,0,0,0,5.26-.75c.78-.51,1-3.51.27-4.36-2.52-3-5.15-6.32-8.51-8-9.19-4.55-18.77-8.32-29.36-12.9a108.37,108.37,0,0,1-2.2-32.94c23.93-1,31.88-2.9,37.06-9-3.92-3.55-7.81-3.94-12.61-1.36-7.44,4-15.53,5.14-25.41,4.1.69-5.66.75-10.93,2.1-15.85s-.41-7.68-4.25-9.87c-5.14-3-8-2.4-13,2.84,7.83.17,8.18,5.26,8.39,11,.53,14.63,1.48,29.25,2.19,43.88a37,37,0,0,1-.32,5.15c-10.15,1.45-19.4,2.19-28.34,4.24C2096.63,1798.65,2091.87,1803,2091.75,1809.91Zm40.86-8.53c0,3.15.23,6.4-.06,9.6a9,9,0,0,1-7.23,8.51c-7.25,1.8-14.53,1.78-21.56-1-4-1.57-7.37-4.65-6.36-9,.71-3.07,3.42-6.74,6.22-8.06C2112.7,1797.19,2122.22,1797.66,2132.61,1801.38Z" transform="translate(-547.19 -985.93)"/><path class="cls-1" d="M2530.27,1809.34a203.9,203.9,0,0,0-18.82-9.12c-4.19-1.8-8.67-2.92-12.5-4.17-3.08-13.49-3.81-27.44-2-34.09,22.15-.61,30.77-2.61,36.47-8.66-3.81-3.73-7.66-4.15-12.49-1.62a38.57,38.57,0,0,1-26.08,3.76c.92-5.65,1.7-10.78,2.62-15.89,1-5.3-.31-7.87-5.6-10-4.4-1.74-8.84-2.87-11.71,2.9,8.28,3.38,8.19,3.39,8.53,11.53.56,13.3,1.29,26.59,1.88,39.89.14,3.25,0,6.5,0,8.77-10.83,1.76-20.38,2.73-29.59,5-5.67,1.42-9.87,5.85-9.92,12.38-.05,6.36,3.83,10.44,9.17,13.2,7.11,3.66,14.75,3.77,22.44,2.89,11.42-1.3,15.45-5.74,16.25-17.44.1-1.55.39-3.08.66-5.13,10.29,2.11,18.25,7.35,25.86,13.28,1.83,1.43,3.47,3.24,5.51,4.23,1.26.61,3.95.59,4.51-.21.95-1.35,1.56-4,.83-5.26A17.69,17.69,0,0,0,2530.27,1809.34Zm-38.39,2.3a8.84,8.84,0,0,1-6.82,7.76,34.89,34.89,0,0,1-21.55-.76c-4-1.46-6.77-4.19-6.78-8.87s3-7.35,6.86-8.82c9-3.39,18.12-3.2,28.37.33C2492,1805.11,2492.27,1808.42,2491.88,1811.64Z" transform="translate(-547.19 -985.93)"/><path class="cls-1" d="M2212.9,1810.2c0,6.41,3.9,10.42,9.23,13.14,7.44,3.79,15.43,3.8,23.43,2.71,10.31-1.41,14.32-5.89,15.2-16.38.15-1.88.43-3.75.74-6.41a70.87,70.87,0,0,1,25.81,13.68c1.8,1.46,3.46,3.24,5.5,4.22,1.26.6,3.93.54,4.51-.27.95-1.33,1.59-4.17.82-5.2-2.14-2.84-4.7-5.86-7.79-7.37-8-3.94-16.48-7-24.65-10.66-2.21-1-5.54-2.68-5.76-4.39-1.34-10.35-3.36-20.75-2.48-31.18,13.7-.75,26.21-.95,39.18-7.38-5.49-5.21-9.32-5.42-14.12-2.94a37,37,0,0,1-25.8,3.54c.72-5.08.83-9.74,2.12-14,1.45-4.84,1-8.42-3.58-11-5-2.82-7.87-2.46-12.85,1.74,8,4.06,7.83,4.07,8.18,13.28.48,12.63,1.21,25.25,1.76,37.88.15,3.56,0,7.14,0,10.95-3.74,0-7-.37-10.23.07-6.53.91-13.19,1.64-19.44,3.58C2217.08,1799.47,2212.9,1803.62,2212.9,1810.2Zm39.61-9.32c3.53,13.8-.26,19.29-13.61,19.69a44.36,44.36,0,0,1-9.89-.82c-7-1.37-10.52-5-10.46-10.06.06-4.71,3.27-8,9.71-9.76A40,40,0,0,1,2252.51,1800.88Z" transform="translate(-547.19 -985.93)"/><path class="cls-1" d="M2332.71,1810.33c.07,6.83,4.48,10.83,10.24,13.49,7.22,3.33,14.88,3.28,22.52,2.22,10.29-1.44,14.23-5.91,15.12-16.46.16-1.86.5-3.71.86-6.31a71.64,71.64,0,0,1,25,13.16c1.81,1.45,3.39,3.38,5.43,4.31,1.55.7,5,.75,5.28.08.78-1.79,1.17-4.73.19-6.12a20.05,20.05,0,0,0-7.32-6.48c-8.08-3.83-16.38-7.22-24.74-10.43-2.94-1.14-5.67-1.91-6-5.62-.85-9.84-1.74-19.67-2.61-29.42,34-4.38,34-4.38,37.9-9.49-6.56-3.9-6.57-3.93-12.36-1.3-7.94,3.6-16.06,5.35-25,3.61,0-3.14-.13-5.44,0-7.73a23,23,0,0,1,1.07-5.85c1.41-4,2.35-7.65-1.73-10.76-4.28-3.26-8.54-3.36-15.22.51,8.79,4.23,8.7,4.23,9.05,12.72.55,13.3,1.27,26.58,1.84,39.87.14,3.22,0,6.45,0,9.74-3.94,0-7.25-.34-10.47.08-6.22.8-12.55,1.44-18.51,3.24S2332.64,1803.29,2332.71,1810.33Zm40-9.4c2.59,14.79-1,19.56-14.7,19.61a45.93,45.93,0,0,1-12.7-1.88c-4-1.17-6.86-4.05-6.94-8.71s2.75-7.42,6.68-8.94C2354,1797.52,2363.15,1797.83,2372.67,1800.93Z" transform="translate(-547.19 -985.93)"/><path class="cls-1" d="M2165.74,2177c-8.67-4.06-17.66-7.42-26.54-11.07a116.31,116.31,0,0,1-2.37-33.33c26.86-1.29,32.2-2.59,36.91-8.77-6.71-3.72-6.74-3.8-12.49-1.18a48.27,48.27,0,0,1-24.95,4.16c.35-5.2-.06-9.95,1.14-14.25,1.31-4.65,2-8.56-2.76-11.22-4.5-2.49-9.13-3.5-14.82,1.33,9.3,1.66,9.36,7.7,9.39,14.26,0,9,.84,18,1.3,27,.36,6.9.69,13.79,1,21-3.68,0-6.63-.3-9.5.06-6.87.89-13.88,1.46-20.5,3.34-5.71,1.62-9.88,6-9.91,12.44,0,6.27,3.76,10.56,9.25,13.16,9.5,4.51,19.38,4.61,29.18,1.34,5.47-1.83,8.7-6,9.16-11.94.21-2.87.47-5.74.81-9.82,4.48,1.82,8.36,2.83,11.63,4.85,6.2,3.83,11.9,8.47,18.14,12.24,1.78,1.07,4.68.3,7.06.38-.26-2.15.28-5.09-.92-6.3A37,37,0,0,0,2165.74,2177Zm-49.25,14.29a43.36,43.36,0,0,1-12.65-2.19c-4-1.28-7.44-4.52-6.45-8.88.7-3.07,3.43-6.38,6.17-8.13,6.11-3.88,18.23-3.51,28-.17C2134.55,2186.16,2130.62,2191.42,2116.49,2191.27Z" transform="translate(-547.19 -985.93)"/><path class="cls-1" d="M2259.74,2166.23c-.94-10.93-1.9-22-2.86-33,34.12-4.5,34.12-4.5,38.13-9.68-4.08-3.22-7.87-3.48-12.69-1-7.7,4-16.05,5.3-25.72,4.21.8-5.71.93-10.41,2.22-14.77,1.41-4.81,1.28-8.71-3.56-11-4.48-2.1-9.23-3.59-13.33,1.43,8.46,4.38,8.32,4.38,8.67,13.74.47,12.65,1.22,25.28,1.77,37.92.15,3.56,0,7.12,0,10.8a92.43,92.43,0,0,0-9.49,0c-6.25.7-12.66,1-18.62,2.74-7.73,2.28-11.71,7.62-11.39,13.45.4,7.28,5,12,11.42,13.58a62.32,62.32,0,0,0,20.55,1.87c11.73-1.09,15.13-5.58,15.93-17.63.1-1.51.43-3,.67-4.59,10.76,2.78,17,6.07,26.69,14,3,2.48,5.75,6,10.22,2.56C2297.16,2180.42,2292.72,2177.54,2259.74,2166.23Zm-13.34,23.88a32.19,32.19,0,0,1-21.47-1c-3.57-1.35-6.14-3.94-6.37-8.13a8.47,8.47,0,0,1,6.27-9.1c4.67-1.49,9.59-2.2,14.4-3.25l.15.69c1.66.1,3.33.09,5,.34,4.07.62,9-.29,9.71,6C2254.88,2182.93,2252.39,2188.23,2246.4,2190.11Z" transform="translate(-547.19 -985.93)"/><path class="cls-1" d="M2385.7,1930c-6.58,5.35-14.58,9-22.06,13.18-2.4,1.34-5.16,2.06-8.82,3.47,2.08.84,2.7,1.34,3.27,1.29,38-3,60.62-41.68,44.57-76.06-6.47-13.86-20.87-17.43-31.81-6.8-6,5.88-10.08,13.85-15,20.92-1.33,1.91-2.46,4-3.68,6a17.61,17.61,0,0,1-.23-10.41,212.26,212.26,0,0,1,7.63-20.42c1.83-4.16,2-7.8-1.15-11-2.68-2.78-5.76-5.52-10.8-1.86,5.2,4.33,4.46,9.36,3,14.69-2,7.39-4.34,14.8-5,22.35-.66,7.12.22,14.48,1.22,21.62.48,3.42,2.65,6.74,7.78,6.93a42.4,42.4,0,0,0,.86-5.88c0-14.69,5.71-27.34,15.13-38,9.85-11.19,22.69-8.18,26.21,6.27,2,8.24,2,17.12,1.92,25.71C2398.74,1913,2394.28,1923,2385.7,1930Z" transform="translate(-547.19 -985.93)"/><path class="cls-1" d="M2258.51,1935.94c-5.58,3.46-12.05,5.47-18.07,8.25a29.69,29.69,0,0,0-4,2.65,7.56,7.56,0,0,0,5.36.71c3.54-.9,7.08-1.86,10.52-3.08,30.7-10.84,44.12-42.56,30.66-72.31-6.51-14.39-21.11-17.76-32.48-6.71-5.37,5.23-9.13,12.16-13.42,18.44a89.14,89.14,0,0,0-4.54,8.33c-1.26-3.07-1.63-5.77-.9-8.12,2.35-7.57,4.8-15.15,7.84-22.46,1.69-4.07,2.44-7.69-.49-11.15-2.6-3.07-5.62-5.74-10.21-3.24,4,8.26,3.92,8.23,1.52,17.94-1.84,7.43-4.14,14.86-4.8,22.42-.56,6.46.5,13.17,1.69,19.62.61,3.37,2.76,6.76,7.27,6.3a9.49,9.49,0,0,0,1.09-2.12,13.91,13.91,0,0,0,.21-3c-.33-14.76,5.83-27.09,14.65-38.27,4.19-5.31,9.93-7.94,16.83-6.12,6.29,1.66,9.23,6.82,10.07,12.52a143.1,143.1,0,0,1,1.7,24.8C2278.61,1916.49,2271.19,1928.09,2258.51,1935.94Z" transform="translate(-547.19 -985.93)"/><path class="cls-1" d="M2138.73,1935c-5.52,3.56-11.88,5.82-17.86,8.69-1.89.91-3.75,1.89-6.23,3.14,1.3.57,1.61.84,1.9.82a52.86,52.86,0,0,0,45-76.21c-6.69-13.76-20.91-17-31.93-6.18-5.82,5.69-9.74,13.31-14.45,20.11-1.31,1.89-2.38,3.94-3.56,5.92a8.62,8.62,0,0,1-1.22-5.48c1-9,3.48-17.6,8.48-25.31,2.33-3.59,1.63-7.16-1-10.11s-5.59-5.85-10.91-2.44c5.48,5,4,10.8,2.3,16.62-1.35,4.8-3.05,9.61-3.55,14.52a151.54,151.54,0,0,0-.87,23.8c.26,4.72,2.13,9.68,9.35,11.17a56.72,56.72,0,0,0,.59-6.06c-.34-14,5.46-25.84,13.52-36.7,4.2-5.68,9.89-9.09,17.3-7.4s10.12,7.64,11,14c1.12,8.52,1.9,17.27,1.25,25.8C2156.75,1917.09,2150,1927.79,2138.73,1935Z" transform="translate(-547.19 -985.93)"/><path class="cls-1" d="M2490.41,1863.82c-7.56,5.87-12.13,14-16.29,22.42-1,2-2.36,3.94-3.55,5.91a8,8,0,0,1-1.08-5.57c1.35-8.93,3.34-17.62,8.33-25.41,2.65-4.15,2-8.41-1.55-11.8-2.6-2.46-5.59-4.71-10-1,5.08,4.39,4.09,9.41,2.76,14.76-2.17,8.71-4.47,17.47-5.44,26.35-.64,5.76.55,11.86,1.73,17.64.7,3.4,2.79,6.73,8.07,6.46.18-2.5.36-4.71.5-6.92.91-14.46,6.08-27.33,16.05-37.71,9.49-9.89,21.31-6.69,25.31,6.5a68.74,68.74,0,0,1,2.33,14.75c2,25.46-9.09,42.78-33,52-3.32,1.27-6.65,2.5-10,3.75,39.39,1.1,64.6-42.21,45.49-76.17C2513.57,1858.19,2501,1855.59,2490.41,1863.82Z" transform="translate(-547.19 -985.93)"/><path class="cls-1" d="M2005.5,1942.7c-3,1.09-6,2.28-9.34,3.58,1.18,1,1.65,1.66,2.08,1.64,37.79-1.79,61.53-42.52,44.73-76.64-6.56-13.31-20.46-16.64-31.28-6.51-5.69,5.34-9.65,12.56-14.19,19.08a81.06,81.06,0,0,0-4.51,8.32l-1.37-.46a35.89,35.89,0,0,1,0-4.64c1.17-9,3.09-17.71,8.11-25.46,2.44-3.76,2.57-7.67-.36-11.1-2.56-3-5.54-5.82-11-2.45,5.78,5,4.11,10.73,2.46,16.53a117.43,117.43,0,0,0-3.29,12.54c-1.55,9.16-3.83,18.37-.88,27.65,1.28,4,2.49,8.3,7.45,9.06.89-.82,1.7-1.2,1.79-1.7a36,36,0,0,0,.34-4.88,55.86,55.86,0,0,1,16.19-38.55c9.19-9.53,21.33-6.63,24.71,6.15C2046.68,1911,2033.13,1932.65,2005.5,1942.7Z" transform="translate(-547.19 -985.93)"/><path class="cls-1" d="M2473.87,1552.83c0-1.94-.17-4.18,0-6.39,1.25-14.39,6.28-27.35,16.49-37.6,9.3-9.34,20.83-6.25,24.71,6.43a73.63,73.63,0,0,1,2.65,17.72c1.13,23.24-9.43,39.67-30.9,48.61-3.92,1.64-8,3-13,4.87,1.4,1.14,1.66,1.55,1.91,1.54,38.31-1.37,62.53-43.11,44.78-77.12-6.64-12.74-20.23-15.89-30.74-5.94-6.13,5.81-10.29,13.72-15.19,20.79-1.61,2.31-2.75,4.94-5.1,9.25,0-4.26-.24-6.26,0-8.19a72.62,72.62,0,0,1,8.25-25.47c4.5-8-.82-14.5-12.25-13.38,7.3,5.45,4.34,11.54,3,17.63-1.88,8.45-4.33,16.88-5,25.44-.45,6.06,1.34,12.4,2.84,18.43C2467,1552.14,2469.16,1555,2473.87,1552.83Z" transform="translate(-547.19 -985.93)"/><path class="cls-1" d="M2050.68,1619.83v83.86l-14.41,1,12.27,8.46c7.91-1.92,9.56-7.42,9.51-14.47-.16-22.66-.07-45.32,0-68,0-3.54.29-7.09.39-9.23,4.18-3.61,9.37.07,11.91-5.62l-7.72-6.46c-9,5.88-9,5.89-19.5,5.89-12.33,0-24.65,0-37,0-2.72,0-5.44.48-8.16.73,0,1,0,2,0,2.94C2015.44,1620.11,2033.09,1618.57,2050.68,1619.83Z" transform="translate(-547.19 -985.93)"/><path class="cls-1" d="M2520.37,1615.31c-12.95-.28-25.92-.12-38.88,0-1.93,0-3.85.81-5.77,1.24.09.77.17,1.54.26,2.32,17.49,1.39,35.2-.45,52.58,1v83.83l-14.38.91,12.16,8.47c7.35-1.83,9.43-6.65,9.37-13.49-.18-22.94-.08-45.88,0-68.83,0-3.56.3-7.11.46-10.49l14.32-2.69-10.52-8.49C2534.28,1615.27,2527.49,1615.47,2520.37,1615.31Z" transform="translate(-547.19 -985.93)"/><path class="cls-1" d="M2044.74,1985.77c-7.31-.26-14.65-.06-22-.06H1998l-.06,2.82c8.46,2.73,17.31,1,25.95,1.26,8.85.31,17.73.07,26.34.07,2.21,14.8,1.53,77.94-.86,85.33h-13.22l12.32,8.5c7.55-1.51,9.65-6.74,9.61-13.9-.13-23-.07-46,0-69,0-3.5.4-7,.61-10.52,2.85-.21,4.53-.18,6.15-.49,1.79-.34,3.51-1,7.22-2.09l-10.29-8C2056.71,1985.44,2050.93,1986,2044.74,1985.77Z" transform="translate(-547.19 -985.93)"/><path class="cls-1" d="M2291,1619.8c-.27,28.9.38,56.38-.4,84.62h-14.88c4.77,3.35,8.21,5.76,12.38,8.67,7.14-1.69,9.34-6.4,9.28-13.34-.21-23-.08-46-.08-69v-10.23l14.62-3.08-9.67-7.84c-9.4,5.64-9.4,5.64-21.17,5.64-12.66,0-25.32,0-38,.08-1.91,0-3.81.85-5.71,1.31l.27,2.37C2255.26,1620.05,2273,1618.64,2291,1619.8Z" transform="translate(-547.19 -985.93)"/><path class="cls-1" d="M2168.82,1619.84c2.24,11.5,1.77,76.65-.78,84.6h-13.69l12.62,8.62c7.44-1.7,9.66-6.73,9.59-14-.21-22.61-.07-45.22-.07-67.84v-10.79l14.51-2.86-10.77-8.5c-5.3,5.85-11.35,6.37-17.9,6.22-13.28-.29-26.58-.13-39.87,0a37.48,37.48,0,0,0-6.07,1c0,.77.05,1.54.08,2.31C2133.88,1620.58,2151.57,1618.28,2168.82,1619.84Z" transform="translate(-547.19 -985.93)"/><path class="cls-1" d="M2383,1619.34c8.9.08,17.81,0,26.46,0,2.28,12.08,1.86,77.17-.57,85.07h-13.27l12.33,8.69c7.09-1.8,9.41-6.42,9.34-13.39-.23-23-.08-46-.08-69v-10.25l14.66-3-9.8-7.88c-9.31,5.66-9.31,5.66-20.15,5.66-13,0-26,0-39,.08-1.89,0-3.77.89-5.65,1.37.1.77.2,1.54.29,2.3C2366,1619.71,2374.52,1619.26,2383,1619.34Z" transform="translate(-547.19 -985.93)"/><path class="cls-1" d="M2163.19,1985.78c-13.65-.21-27.31-.11-41,0a35.3,35.3,0,0,0-6,1.06c8.68,4.22,17.5,2.71,26.15,3,8.88.26,17.77.06,26.38.06,2.28,12,1.86,77.39-.55,85.27h-13.83l12.84,8.66c6.93-2,9.48-6.7,9.39-14.06-.26-22.66-.09-45.33-.09-68,0-3.59,0-7.19,0-10.8l14.58-2.76-11-8.51C2175.17,1985.47,2169.38,1985.88,2163.19,1985.78Z" transform="translate(-547.19 -985.93)"/><path class="cls-1" d="M2282.15,1985.79c-13-.27-26-.12-39,0-2,0-3.92.76-5.87,1.17l.22,2.33c17.5,1.59,35.24-.4,52.87,1.1v84.32l-14.46.65,12.3,8.32c7.24-1.72,9.24-6.54,9.18-13.41-.21-23-.08-46-.08-69V1991l14.71-2.89-10.31-8.31C2296.1,1985.83,2289.27,1986,2282.15,1985.79Z" transform="translate(-547.19 -985.93)"/><path class="cls-1" d="M2404.12,1985.79c-13.31-.24-26.63-.12-39.94,0a47.72,47.72,0,0,0-7,1c8.71,4.33,17.55,2.72,26.21,3,8.85.28,17.71.07,26.32.07,2.14,15,1.49,77.9-.87,85.36h-13.25l12.43,8.44c7-1.65,9.28-6.29,9.22-13.22-.2-23-.07-46-.07-69V1991l14.85-2.79-10.94-8.48C2416.06,1985.4,2410.31,1985.9,2404.12,1985.79Z" transform="translate(-547.19 -985.93)"/><path class="cls-1" d="M2454.71,1645.08c.25,5.39.51,8.59.52,11.78.05,16,0,31.91.09,47.86,0,3.06-1.27,6.73,2.67,9,4.93-1.46,3.72-5.63,3.74-9,.1-19.28.06-38.55.05-57.82,0-6.46-.91-13.06.19-19.32,1.18-6.66,4.26-13,6.74-20.14l-6.71-1.41c-2.9,9.87-5,19.29-8.48,28.2-3.33,8.63-8,16.74-12.09,25.08l1.33.84Z" transform="translate(-547.19 -985.93)"/><path class="cls-1" d="M2461.8,1977.51c-2.86,9.66-4.94,18.79-8.3,27.42s-7.95,16.65-12,25l1.49.86,10.12-13.36,2.16.46v21.69c0,7.67-.27,15.35.07,23,.31,7.09-1.62,14.44,1.68,21.72,5.82-1,4.7-5.25,4.72-8.52.1-20,0-40,.06-60,0-12.39-.08-24.81,6.83-35.91.23-.37-.15-1.13-.35-2.3Z" transform="translate(-547.19 -985.93)"/><path class="cls-1" d="M2275.38,2009c-10.78-2.44-23,4.12-34.89-2.2-2.43,17-1.55,44.35,2.19,51.84,2-4.3,3.46-7.54,5-10.8h18.55c1.26,3.17,2.29,5.77,3.3,8.33,4.42-.84,4.14-3.72,4.16-6.3.07-8.33-.13-16.67.12-25C2273.91,2020.06,2274.72,2015.24,2275.38,2009Zm-8.3,33.6h-20.53v-28.19h20.53Z" transform="translate(-547.19 -985.93)"/><path class="cls-1" d="M2274.73,1638.24c-.92-.21-3.28-1.6-5-1-9.75,3.31-19.38,2-29-.15-2.22,10.4-1.81,42.2.62,49.15,6.9.29,2.46-7.54,6.26-9.08h18.63l3.79,10.95c1.87-3.86,3.32-5.57,3.47-7.39.37-4.63.08-9.31.21-14C2274,1657.61,2274.36,1648.5,2274.73,1638.24Zm-7.82,33.81h-20.36c-1.43-9.42-.76-18.76-.3-28.65h20.66Z" transform="translate(-547.19 -985.93)"/><path class="cls-1" d="M2096.14,1644c0,13.67-.14,24.85,0,36s-.79,22.24.66,33.66c6.64-.85,5.48-5.13,5.5-8.4.1-19.93,0-39.87.06-59.8,0-12-.06-24,6-35,.41-.75.76-1.52,1.55-3.12l-8.44-1.14c-2.45,19.69-9.92,36.81-20.15,52.89l1.77,1.2Z" transform="translate(-547.19 -985.93)"/><path class="cls-1" d="M2359.93,2007.29c-2.15,17.77-1.32,43.67,2.58,51.91,2-5,3.23-8.14,4.56-11.47h18.61l3.88,8.64c4.9-1.66,3.82-5.11,3.87-7.86.15-8.64-.13-17.29.15-25.92.13-4.12,1.13-8.21,2-13.72C2383.85,2007.37,2371.54,2012.52,2359.93,2007.29Zm26.74,35.26h-20.61v-28.39h20.61Z" transform="translate(-547.19 -985.93)"/><path class="cls-1" d="M2000.89,2007.51c-1.84,14.76-1.31,42.29.85,49.26,6.39.17,3-6.41,6.18-8.8h19.31c.82,3.1,1.47,5.58,2.22,8.43,5.53-1.11,4.91-4.49,4.94-7.32.1-7.34-.08-14.68.09-22,.13-5.54.62-11.08,1-18.16C2024.67,2007.14,2012.45,2012.51,2000.89,2007.51Zm26.85,34.36c-6.73,2.68-13.44,1.41-20.82.86v-28.44h20.82Z" transform="translate(-547.19 -985.93)"/><path class="cls-1" d="M2153.88,2008.2c-11,0-23.12,3.81-34.89-.92v49.36c7.47.84,4.69-5.27,6.78-8.62h19.54c1.21,3.3,2.13,5.82,3.06,8.34l2.4.07c.65-2.18,1.76-4.35,1.85-6.55.26-6.31,0-12.64.14-19C2153,2024.07,2153.42,2017.23,2153.88,2008.2Zm-7.77,34.25h-20.76V2014.3h20.76Z" transform="translate(-547.19 -985.93)"/><path class="cls-1" d="M2216.65,1644.9c1,23.88-.4,46.07.91,69.29,7.25-1.91,5.69-6.22,5.71-9.41.14-19.65,0-39.31.1-59,0-6.42-.43-13,.71-19.22s4-12.39,6.37-19.31l-7.69-1c-2.62,19.62-10.07,36.7-20.21,52.8.63.32,1.26.64,1.88,1Z" transform="translate(-547.19 -985.93)"/><path class="cls-1" d="M2338.21,1996.29a158.71,158.71,0,0,1-7,17.61c-2.43,5.32-5.4,10.39-8.14,15.57l1.53.87c3.59-4.43,7.17-8.85,11.81-14.56,1.46,23.92-.8,46,1.43,68.57,6.65-1.49,5.23-5.75,5.25-8.92.12-19.67,0-39.34.09-59,0-6.43-.45-13,.71-19.25s4.08-12.42,6.45-19.25l-7.2-1.14C2341.32,1984.06,2340.14,1990.29,2338.21,1996.29Z" transform="translate(-547.19 -985.93)"/><path class="cls-1" d="M2217,2027.57c0,16.29,0,32.58,0,48.87,0,3-.89,6.75,5.78,8,.2-4.62.48-8.18.49-11.74,0-18.95,0-37.89,0-56.84,0-12.42.3-24.77,6.84-35.95.23-.41-.13-1.15-.26-2.05a28.28,28.28,0,0,0-3.65-.82,17.91,17.91,0,0,0-3.36.41,130.66,130.66,0,0,1-20.4,52l1.87,1.11c3.72-4.49,7.44-9,12.62-15.21C2217,2021.06,2217,2024.31,2217,2027.57Z" transform="translate(-547.19 -985.93)"/><path class="cls-1" d="M2578.57,1606.11c-1.6,6.71-2.72,12.9-4.61,18.86a158.82,158.82,0,0,1-6.95,17.65c-2.47,5.44-5.47,10.64-8.24,16l1.7,1,10.09-13.39,1.94.3c0,11.22-.16,22.45,0,33.67.19,11.07-.87,22.23.74,33.84,6.58-1.37,5.42-5.57,5.43-8.84.1-20,0-40,.06-60,0-12.39.09-24.77,6.94-35.85.23-.36-.19-1.11-.41-2.14Z" transform="translate(-547.19 -985.93)"/><path class="cls-1" d="M2096.33,2016.88v67.58c7.14-1.61,6-5.79,6-9.07q.14-29,0-58c0-6.09-1.25-12.38-.11-18.23,1.3-6.73,4.64-13,7-19.58.16-.43-.31-1.1-.62-2.06l-6.18-.4c-2.77,9.43-4.8,18.54-8.16,27.14-3.44,8.82-8.17,17.14-12.34,25.68l1.16.92q5.79-7.29,11.56-14.59Z" transform="translate(-547.19 -985.93)"/><path class="cls-1" d="M2336.86,1644.41v12.34c0,16.3-.05,32.61.06,48.92,0,2.65.75,5.3,1.22,8.38,6.6-1.93,4.88-6.26,4.9-9.45.16-19.64,0-39.27.11-58.9,0-6.42-.42-13,.74-19.21s4.05-12.35,6.37-19.07l-6.62-1.32c-3,10.18-5.15,19.28-8.49,27.91s-7.82,16.49-11.81,24.7l1.27.91Z" transform="translate(-547.19 -985.93)"/><path class="cls-1" d="M2394.55,1638.13c-4.78-5-10.58,2.81-16.69,1.07-5.74-1.64-12.08-1.18-18.16-1.65-2,20.23-1.17,43,2.65,50.4l5-11.06h18.77l2.51,8.46,2.46.59c.77-1.82,2.07-3.59,2.21-5.46.33-4.63,0-9.3.18-13.94C2393.77,1657.47,2394.17,1648.4,2394.55,1638.13Zm-7.72,33.82h-20.38c-1.91-9.31-.65-18.41-.88-28.62h21.26Z" transform="translate(-547.19 -985.93)"/><path class="cls-1" d="M2153.53,1637.52c-10.72.18-22.81,3.87-34.55-.79V1686c8.13,1.1,4.07-6.42,7.33-8.89h19.1c1,3.26,1.79,5.94,3.29,10.91,2-3.52,3.71-5.14,3.82-6.87.38-5.62.11-11.28.23-16.92C2152.92,1656,2153.22,1647.85,2153.53,1637.52Zm-7.34,34.57h-20.88v-28.66h20.88Z" transform="translate(-547.19 -985.93)"/><path class="cls-1" d="M2479.16,1636.78c-2.19,11.29-1.73,42.54.62,49.23,3.86-2.34,3.86-2.34,5.7-8.85h19.13l3.61,10.71c2-3.45,3.58-5.11,3.77-6.92.44-4.27,0-8.63.25-12.93.47-9.48-1.59-19.11,2.55-29.67C2502.51,1636.58,2490.44,1642.1,2479.16,1636.78Zm26,35.39h-20.34v-28.73h20.34Z" transform="translate(-547.19 -985.93)"/><path class="cls-1" d="M2035.3,1638.27c-10.74-1.52-22.88,3.45-34.43-1.3-1.83,15-1.3,42.24.84,49.09,7.06.52,2.48-7.46,6.46-9H2027c.94,3.23,1.74,5.94,2.49,8.49,4.36.16,4.84-2.44,4.88-5.26.08-5.32,0-10.64.09-16C2034.65,1656.14,2035,1648,2035.3,1638.27Zm-7.72,33.63h-20.77c-.23-3-.52-5.3-.54-7.56-.07-6.58,0-13.17,0-20,7.29-3,14-1.2,21.34-1.28Z" transform="translate(-547.19 -985.93)"/><path class="cls-1" d="M1973.21,1450.65c.1,6.3,4,10.45,9.45,13a36.48,36.48,0,0,0,21.39,3c12.92-1.92,16.31-5.64,17.1-18.79a36.18,36.18,0,0,1,.81-4.11c10.73,2.58,19.31,8,27.19,14.73,2.8,2.38,5.45,5.19,9.42,2.1-.57-7.26-.67-8.38-7.11-11.62-9.74-4.91-19.89-9-30.3-13.61-2.67-8.49-3.85-26.22-2.05-33.27,23.36-.75,30.63-2.39,36.28-8.18-6.38-4.5-6.44-4.62-12.09-1.93a47.29,47.29,0,0,1-26.19,4.37c.84-5.79,1.45-10.94,2.38-16,1-5.53,0-8.25-4.85-10.27-4.06-1.69-8.26-2.69-13.62,3,8.86.56,9.92,5.35,9.91,11.68,0,10,1,19.92,1.3,29.89.22,6.55,0,13.12,0,19.9-3.12,0-6.07-.32-8.92.07-6.86.92-13.86,1.52-20.44,3.5C1977.3,1439.79,1973.11,1444.15,1973.21,1450.65Zm24.86-12c3.79.36,5.46.43,7.09.69,4.12.67,8.86.14,9.28,6.54.49,7.52-1.86,12.11-8.12,14-6.94,2.11-13.85,1.47-20.54-.93-4-1.42-6.84-4.12-6.93-8.78s2.76-7.54,6.76-8.79A119.36,119.36,0,0,1,1998.07,1438.67Z" transform="translate(-547.19 -985.93)"/><path class="cls-1" d="M2234.63,1203.53c.52-3.18,1-5,1.07-6.84.16-15,5.88-28,15.83-38.75,9.39-10.15,22-7.41,25.25,5.84,7.93,32.45-.31,56.11-31.86,67.74-2.92,1.08-5.82,2.23-10.79,4.14,6.67,1.95,10.55-.07,14.42-1.19,36.75-10.59,44.39-39.73,35.39-70.68-5.28-18.18-22.67-21.69-35.48-7.62-5.28,5.81-8.79,13.22-13.11,19.9-1.08,1.67-2.18,3.34-3.28,5-.4-11.27,1.52-21.59,7.36-30.87,2.4-3.8,2.37-7.6-.48-11.11-2.68-3.3-5.93-5-11.13-2.43,5.41,4.8,4.19,10.11,2.92,15.86-2.37,10.68-4.67,21.46-5.66,32.31C2224.46,1191.59,2225.85,1198.78,2234.63,1203.53Z" transform="translate(-547.19 -985.93)"/><path class="cls-1" d="M2113.94,1202.61c.28-2.74.65-4.91.71-7.08.39-14.3,5.88-26.71,15.19-37.1,9.87-11,23-7.82,26.15,6.59a100.86,100.86,0,0,1,1.53,28.72c-1,13-8.08,23.27-19.05,30.21-5.84,3.7-12.54,6-18.84,9-1.49.71-2.89,1.61-4.33,2.42a6.09,6.09,0,0,0,5.13.86,135.48,135.48,0,0,0,13.37-4c28.93-11.38,41.38-44,27.64-72.07-6.61-13.49-20.24-16.82-31.21-6.69-5.49,5.07-9.34,12-13.75,18.18a90.72,90.72,0,0,0-4.65,8.23,42.46,42.46,0,0,1,6.46-29.54c2.44-3.86,2.55-7.57-.36-11.06-2.71-3.24-5.88-5.55-10.81-2.58,4.73,4.74,4,10.18,2.34,15.85-1.5,5.11-3.28,10.25-3.84,15.49a143.89,143.89,0,0,0-.8,23.83C2105.11,1196.55,2106.92,1201.6,2113.94,1202.61Z" transform="translate(-547.19 -985.93)"/><path class="cls-1" d="M2050.72,1260.23v83.92c-2.82.19-5,.4-7.29.48s-4.31,0-7.55,0l12.65,8.74c7.87-1.88,9.57-7.34,9.52-14.38-.15-22.63-.05-45.26-.05-67.89v-10.4l14.38-3.06-10.32-8.23c-5.62,6.25-12.47,6.26-19.58,6.12-13-.26-25.94-.12-38.91,0-2,0-3.89.78-5.83,1.2.08.74.16,1.48.25,2.22C2015.47,1260.65,2033.22,1258.41,2050.72,1260.23Z" transform="translate(-547.19 -985.93)"/><path class="cls-1" d="M2162.45,1255.57c-12.63-.32-25.27-.14-37.91-.06-2.74,0-5.48.43-8.22.66l0,2.37c8.41,2.13,17.17.52,25.73,1,9.11.54,18.37-1.18,27.39,1.11v83.46c-2.9.21-5.15.43-7.41.52s-4.43,0-8.07,0l13,8.66c7.34-1.63,9.61-6.63,9.55-13.88-.2-23-.09-45.92,0-68.89,0-3.5.3-7,.45-10.23l11.42-1.77c.24-.71.47-1.42.71-2.12l-8.8-7.06C2175,1255.19,2169,1255.73,2162.45,1255.57Z" transform="translate(-547.19 -985.93)"/><path class="cls-1" d="M2282,1255.55c-13-.27-25.94-.12-38.91,0-1.93,0-3.85.82-5.78,1.27l.24,2.45c17.56.81,35.24-.22,52.81.57v84.58h-15.21l12.87,9c7.81-1.93,9.43-7,9.37-13.75-.21-23-.1-45.92-.05-68.89,0-3.51.3-7,.45-10.3l11.93-2.08c.12-.74.25-1.47.38-2.21l-8.47-6.71C2296,1255.64,2289.16,1255.7,2282,1255.55Z" transform="translate(-547.19 -985.93)"/><path class="cls-1" d="M1975.87,1286.75l1.71.88v21.85c0,7.65-.27,15.31.07,22.94.32,7.08-1.62,14.41,1.61,21.57,5.82-1.1,4.57-5.38,4.59-8.65.11-19.95,0-39.91.07-59.86,0-12.38,0-24.77,6.79-35.88.23-.38-.13-1.12-.27-2.09l-7.16-1.11a127.83,127.83,0,0,1-20.36,52.74l1.8,1.44Z" transform="translate(-547.19 -985.93)"/><path class="cls-1" d="M2275.37,1278.63c-11.16-1.52-23.43,3.69-35-1.58-2.31,16.75-1.44,43.8,2.27,51.29l5-10.76h18.5c1.28,3.24,2.31,5.82,3.34,8.4,4.91-1.25,4.1-4.67,4.15-7.44.12-8-.13-16,.12-24C2273.92,1289.7,2274.71,1284.88,2275.37,1278.63Zm-8.25,33.74h-20.66v-28.58h20.41C2268.13,1293.09,2267.75,1302.42,2267.12,1312.37Z" transform="translate(-547.19 -985.93)"/><path class="cls-1" d="M2362.77,1328.1l4.32-10.47H2386l3.39,8.45,2.29,0c.6-2.24,1.67-4.47,1.72-6.72.22-8.31-.07-16.64.18-25,.14-4.81.95-9.6,1.57-15.45-4.83-5.54-10.77,2.17-16.74.56s-12.24-1.07-19.32-1.53v16.24c0,5.66-.34,11.34.1,17C2359.57,1316.43,2357,1322.31,2362.77,1328.1Zm3.35-44.22h20.57v28.52h-20.57Z" transform="translate(-547.19 -985.93)"/><path class="cls-1" d="M2001.22,1277.1c-2.36,12.69-1.72,43.06.91,49.34,3.65-2.9,3.65-2.9,5.25-8.89h19.53l3.42,10.4c2-3.3,3.72-4.91,3.89-6.67.43-4.63.06-9.33.25-14,.36-9.18-1.41-18.49,2.51-28.77C2024.55,1277.17,2012.54,1282.39,2001.22,1277.1Zm26.42,35.45H2007V1284h20.61Z" transform="translate(-547.19 -985.93)"/><path class="cls-1" d="M2119.32,1276.7c-2,16-1.38,43.32,1.07,49.8,6.4.09,2.7-6.58,5.94-8.84h19c1.16,3.25,2.07,5.79,3.14,8.77,4.26-4.42,4.17-4.43,4.3-22.68.06-8.12.58-16.24.94-25.72C2142.86,1277.51,2131.12,1282.35,2119.32,1276.7Zm26.69,35.67h-20.57V1284H2146Z" transform="translate(-547.19 -985.93)"/><path class="cls-1" d="M2096.14,1284.26c0,13.74-.22,25,.06,36.29.27,11-1.22,22.12,1.05,33.65,6.27-1.87,5.07-6,5.09-9.32.11-19.66,0-39.32.06-59,0-6.07-.86-12.31.24-18.17,1.25-6.66,4.25-13,6.66-20l-7.81-1.62c-2.31,20.15-10.12,37.17-20.08,53.38l1.75,1Z" transform="translate(-547.19 -985.93)"/><path class="cls-1" d="M2215.16,1286.83l1.85.43v22.42c0,7.32-.31,14.66.08,22s-1.79,14.94,1.8,22.34c5.84-1.48,4.36-5.75,4.38-9,.13-19.63,0-39.26.1-58.89,0-6.41-.46-13,.68-19.19s4-12.42,6.37-19.25l-7.76-1.17c-2.36,19.68-10,36.69-20,52.83l2,1.05Z" transform="translate(-547.19 -985.93)"/><path class="cls-1" d="M2336.86,1284.18v25.12c0,7.64-.3,15.31.09,22.94.37,7.18-1.73,14.78,1.9,22.47,5.45-3,4.2-7,4.22-10.32.1-19.62,0-39.24.06-58.86,0-12.41.33-24.77,6.89-35.94.22-.38-.17-1.12-.35-2.1l-6.89-1a129.15,129.15,0,0,1-20.45,52.64l2.16,1.25Z" transform="translate(-547.19 -985.93)"/><path class="cls-1" d="M3007.15,1743.63c-3.75-8.8-8.21-17.31-12.37-25.94l-2.38.36c-4,8.37-8.44,16.58-12,25.15-2.47,6-6,8.63-12.57,9.16-9.06.74-18,2.76-29.13,4.59,6.21,6.25,10.4,11.47,15.54,15.44,9.85,7.61,13,16.45,9,28.56-2.11,6.32-2.08,13.35-3.29,22.06,10.11-5.41,18.46-9.46,26.36-14.25,5.2-3.15,9.5-3.09,14.68,0,7.91,4.75,16.24,8.8,26.12,14.06-.49-5-.65-8.24-1.14-11.38-.94-5.92-1.87-11.85-3.16-17.69-1.41-6.34-.78-11.61,4.85-15.94,3.92-3,7.17-6.95,10.67-10.51,2.92-3,5.77-6,10.05-10.41-11.29-1.85-20.3-3.78-29.41-4.64C3012.93,1751.69,3009.52,1749.17,3007.15,1743.63Zm9.67,33c-3.63,3.27-4.66,6.77-3.54,11.52,1.28,5.43,1.87,11,2.83,17-5.08.73-8.41-1.92-11.29-4.08-7.79-5.84-14.94-5.55-22.52.21-2.79,2.11-6.27,3.32-11.27,5.88,1-6.48,1.1-11.1,2.42-15.35,2.39-7.73.15-13.37-6-18.24-3.32-2.64-6-6-10.51-10.61,6.41-1.14,11.08-2.63,15.77-2.67,7.47,0,11.42-3.7,13.88-10.31,1.6-4.31,4-8.33,6.87-14.29,3.33,6.49,6.27,11.43,8.44,16.69,2,4.89,5,7.28,10.41,7.61s10.49,1.55,18.33,2.78C3025.12,1768.38,3021.17,1772.75,3016.82,1776.66Z" transform="translate(-547.19 -985.93)"/><path class="cls-1" d="M2465.77,1032.66c7.37-3.08,11.89-6.47,16.38-6.43s8.93,3.53,14.36,5.93c-.57-5.92-2.47-11.23-1.11-15.5,1.46-4.63,6-8.28,9.81-13.2-5.48-1.26-11.17-1.07-14.65-3.76-3.84-3-5.64-8.58-8.77-13.77-1.53,2.57-3,4.34-3.72,6.37-2.28,6.27-6.12,9.88-13.23,9.58-1.9-.09-3.87,1.34-7.53,2.73C2468.61,1011.4,2470.6,1020.37,2465.77,1032.66Zm15.95-34.41,12.35,9-4.69,14.57h-15.27c-1.3-4.14-3-9.41-4.53-14.49Z" transform="translate(-547.19 -985.93)"/><path class="cls-1" d="M1477.42,1114.91c-1.13,2.91-1,6.32-1.61,11.1,6.75-3,12.23-5.26,17.47-7.94a11.4,11.4,0,0,1,11.28,0c5.21,2.64,10.63,4.84,17.63,8-1.14-6.38-1.72-10.9-2.79-15.31-1.23-5.07-.18-8.78,4.21-12.09,4-3,8.63-5.64,11.32-11.55-6.82-1-12.66-1.9-18.55-2.52a10,10,0,0,1-8.55-5.79c-2.4-4.63-5.22-9-9-15.45-3.3,5.63-5.86,9.14-7.52,13-2.54,6-6.87,8.31-13.11,8.7-5,.31-9.94,1.5-16.62,2.57,4,3.68,6.16,6.3,8.87,8C1478,1100.36,1480.75,1106.29,1477.42,1114.91Z" transform="translate(-547.19 -985.93)"/><path class="cls-1" d="M1063.87,1706.81c1.52,4.18-.09,9.5-.37,15.2,5.53-2.07,10.37-5.31,15.21-5.3,5,0,10.09,3.18,15.62,5.14-.32-5.8-1.95-10.89-.43-14.73,1.6-4,6.23-6.87,10.3-11-6.27-1.13-11.91-.77-15.74-3.23-4-2.59-6.32-7.88-9.72-12.46-3.29,4.71-5.29,10-9.09,12.33-4.09,2.54-9.87,2.34-16.26,3.59C1057.69,1700.42,1062.47,1703,1063.87,1706.81Z" transform="translate(-547.19 -985.93)"/><path class="cls-1" d="M919.48,2351.84c-2.18,3.44-4.23,6-5.56,8.92-2.33,5.08-5.8,7.57-11.56,7.6-3.64,0-7.27,1.27-11.75,2.13,4.9,5,10.27,8.13,11.81,12.6,1.66,4.8-.28,10.84-.75,17.71,4.14-1.74,7.58-2.78,10.59-4.55,5.17-3,10-2.67,15,.15,3,1.65,6.29,2.68,10.77,4.52-.69-4.81-.65-7.86-1.6-10.56-1.9-5.33-.14-8.83,4.21-11.91,2.82-2,5.18-4.63,8.86-8-7.79-1.31-14.6-.79-19.26-3.7S923.39,2357.53,919.48,2351.84Z" transform="translate(-547.19 -985.93)"/></svg>